<svg width="256" height="256" viewBox="0 0 256 256" fill="none" xmlns="http://www.w3.org/2000/svg">
<path fill-rule="evenodd" clip-rule="evenodd" d="M45 95.77H211V223.7H45V95.77Z" fill="#01CAB8" fill-opacity="0.4"/>
<path d="M225.66 27.41H203.66V20.09C203.66 15.5575 201.859 11.2105 198.654 8.00554C195.449 4.80055 191.103 3 186.57 3C182.037 3 177.691 4.80055 174.486 8.00554C171.281 11.2105 169.48 15.5575 169.48 20.09V27.41H145.09V20.09C145.09 15.5575 143.289 11.2105 140.084 8.00554C136.879 4.80055 132.533 3 128 3C123.467 3 119.121 4.80055 115.916 8.00554C112.711 11.2105 110.91 15.5575 110.91 20.09V27.41H86.5V20.09C86.5 15.5575 84.6995 11.2105 81.4945 8.00555C78.2895 4.80055 73.9426 3 69.41 3C64.8775 3 60.5306 4.80055 57.3256 8.00555C54.1206 11.2105 52.32 15.5575 52.32 20.09V27.41H30.32C26.4414 27.4232 22.7259 28.9719 19.9861 31.7173C17.2463 34.4627 15.7053 38.1814 15.7 42.06V238.35C15.7027 242.233 17.2456 245.956 19.9903 248.703C22.735 251.449 26.4571 252.995 30.34 253H225.66C229.543 252.995 233.265 251.449 236.01 248.703C238.754 245.956 240.297 242.233 240.3 238.35V42.06C240.295 38.1779 238.751 34.4562 236.007 31.7103C233.263 28.9643 229.542 27.4179 225.66 27.41V27.41ZM179.27 20.09C179.34 18.1941 180.142 16.3993 181.509 15.0828C182.875 13.7663 184.698 13.0307 186.595 13.0307C188.492 13.0307 190.315 13.7663 191.682 15.0828C193.048 16.3993 193.85 18.1941 193.92 20.09V27.41H179.27V20.09ZM120.68 20.09C120.68 18.1486 121.451 16.2867 122.824 14.914C124.197 13.5412 126.059 12.77 128 12.77C129.941 12.77 131.803 13.5412 133.176 14.914C134.549 16.2867 135.32 18.1486 135.32 20.09V27.41H120.68V20.09ZM62.08 20.09C62.1501 18.1941 62.9525 16.3993 64.3185 15.0828C65.6846 13.7663 67.5078 13.0307 69.405 13.0307C71.3022 13.0307 73.1255 13.7663 74.4915 15.0828C75.8575 16.3993 76.66 18.1941 76.73 20.09V27.41H62.08V20.09ZM30.34 37.18H52.34V39.62C52.3453 44.1475 54.1448 48.4883 57.3443 51.6916C60.5439 54.8948 64.8826 56.6994 69.41 56.71C70.7043 56.71 71.9455 56.1959 72.8607 55.2807C73.7759 54.3655 74.29 53.1243 74.29 51.83C74.29 50.5357 73.7759 49.2945 72.8607 48.3793C71.9455 47.4641 70.7043 46.95 69.41 46.95C67.4668 46.9474 65.6039 46.1742 64.2298 44.8002C62.8558 43.4261 62.0827 41.5632 62.08 39.62V37.18H110.91V39.62C110.915 44.1509 112.718 48.4948 115.921 51.6986C119.125 54.9025 123.469 56.7047 128 56.71C129.203 56.5878 130.317 56.0236 131.128 55.1266C131.938 54.2297 132.387 53.0638 132.387 51.855C132.387 50.6462 131.938 49.4803 131.128 48.5834C130.317 47.6864 129.203 47.1222 128 47C126.058 46.9974 124.196 46.2239 122.823 44.8496C121.451 43.4752 120.68 41.6123 120.68 39.67V37.18H169.5V39.62C169.505 44.1509 171.308 48.4948 174.511 51.6986C177.715 54.9025 182.059 56.7047 186.59 56.71C187.884 56.71 189.126 56.1959 190.041 55.2807C190.956 54.3655 191.47 53.1243 191.47 51.83C191.47 50.5357 190.956 49.2945 190.041 48.3793C189.126 47.4641 187.884 46.95 186.59 46.95C184.648 46.9474 182.786 46.1739 181.413 44.7996C180.041 43.4252 179.27 41.5623 179.27 39.62V37.18H225.66C226.953 37.1826 228.193 37.6976 229.108 38.6122C230.022 39.5268 230.537 40.7666 230.54 42.06V66.48H25.46V42.06C25.4627 40.7666 25.9776 39.5268 26.8922 38.6122C27.8069 37.6976 29.0466 37.1826 30.34 37.18V37.18ZM225.66 243.23H30.34C29.0466 243.227 27.8069 242.712 26.8922 241.798C25.9776 240.883 25.4627 239.643 25.46 238.35V76.24H230.54V238.35C230.537 239.643 230.022 240.883 229.108 241.798C228.193 242.712 226.953 243.227 225.66 243.23V243.23Z" fill="#005C74"/>
<path d="M155.9 125.09C153.793 125.085 151.706 125.498 149.759 126.305C147.813 127.111 146.046 128.296 144.56 129.79L118.7 155.65L111.44 148.39C108.431 145.381 104.35 143.691 100.095 143.691C95.8398 143.691 91.7589 145.381 88.75 148.39C85.7411 151.399 84.0508 155.48 84.0508 159.735C84.0508 163.99 85.7411 168.071 88.75 171.08L107.36 189.68C110.369 192.684 114.448 194.372 118.7 194.372C122.952 194.372 127.031 192.684 130.04 189.68L167.25 152.48C169.516 150.244 171.064 147.383 171.696 144.263C172.327 141.143 172.013 137.905 170.795 134.965C169.576 132.024 167.508 129.513 164.854 127.754C162.201 125.995 159.083 125.067 155.9 125.09V125.09ZM160.34 145.58L123.14 182.78C121.962 183.957 120.365 184.619 118.7 184.619C117.035 184.619 115.438 183.957 114.26 182.78L95.66 164.18C95.0607 163.601 94.5828 162.908 94.2541 162.142C93.9254 161.376 93.7524 160.552 93.7454 159.718C93.7384 158.885 93.8974 158.058 94.2132 157.286C94.5289 156.515 94.9951 155.814 95.5846 155.225C96.174 154.635 96.8749 154.169 97.6464 153.853C98.4179 153.537 99.2445 153.378 100.078 153.385C100.912 153.392 101.736 153.565 102.502 153.894C103.268 154.223 103.961 154.701 104.54 155.3L115.25 166C116.165 166.915 117.406 167.429 118.7 167.429C119.994 167.429 121.235 166.915 122.15 166L151.46 136.69C152.039 136.091 152.732 135.613 153.498 135.284C154.265 134.955 155.088 134.782 155.922 134.775C156.756 134.768 157.582 134.927 158.354 135.243C159.125 135.559 159.826 136.025 160.415 136.615C161.005 137.204 161.471 137.905 161.787 138.676C162.103 139.448 162.262 140.275 162.255 141.108C162.248 141.942 162.075 142.766 161.746 143.532C161.417 144.298 160.939 144.991 160.34 145.57V145.58Z" fill="#005C74"/>
</svg>
