<svg width="256" height="256" viewBox="0 0 256 256" fill="none" xmlns="http://www.w3.org/2000/svg">
<path fill-rule="evenodd" clip-rule="evenodd" d="M199.84 92.3301C238.52 25.3301 167.39 -19.1899 127.99 20.2201C88.59 -19.1899 17.47 25.3301 56.15 92.3301C73.95 123.16 109.85 151.43 127.99 156.33C146.14 151.42 182 123.16 199.84 92.3301Z" fill="#01CAB8" fill-opacity="0.4"/>
<path d="M252.38 179.12C250.38 172.34 243.23 166.12 232.11 168.65C232.03 168.65 185.82 179.83 185.73 179.84C184.46 172.49 177.19 166.76 169.73 167.6C164.62 168.07 132.5 171.73 127.17 172.22C121.84 172.71 114.66 171.66 106.45 170.42C92.9 168.42 77.55 166.08 62.14 169.55C43.87 173.67 29.9 184.99 19.44 204.16L4.9 229.86C3.65883 232.048 3.00638 234.52 3.00638 237.035C3.00638 239.55 3.65883 242.022 4.9 244.21C6.01682 246.138 7.62099 247.739 9.55166 248.852C11.4823 249.965 13.6716 250.55 15.9 250.55H66.9C79.47 251.04 81.04 244.45 86.9 235.55L116.06 237C137.58 238 144.45 236.93 165.06 229.21C181.01 223.21 200.93 215.08 216.94 208.52C228.4 203.83 238.3 199.78 242.01 198.52C251.5 195.13 254.44 186.22 252.39 179.21L252.38 179.12ZM238.76 189.22C219.32 196.57 183.46 211.99 161.62 220.01C142.23 227.29 136.75 228.16 116.53 227.19L84.53 225.67C83.6649 225.639 82.8071 225.838 82.0444 226.247C81.2818 226.657 80.6418 227.262 80.19 228L74.43 237.15C73.19 239.15 72.49 240 71.92 240.3C71.03 240.78 68.79 240.84 66.92 240.84H15.92C12.64 240.66 12.09 237.05 13.41 234.68C13.41 234.62 27.96 208.99 28 208.92C47.75 173.5 75.16 175.55 105 180.13C124 183.39 128.19 182.02 149.44 179.68C158.58 178.68 168.04 177.62 170.63 177.38C172.034 177.309 173.409 177.794 174.457 178.73C175.505 179.666 176.142 180.977 176.23 182.38C176.31 183.38 176.54 185.94 170.04 188.76C157.338 194.327 144.192 198.82 130.74 202.19C130.116 202.336 129.526 202.604 129.005 202.979C128.484 203.353 128.042 203.826 127.704 204.371C127.022 205.472 126.804 206.799 127.1 208.06C127.396 209.321 128.18 210.413 129.281 211.096C130.382 211.778 131.709 211.996 132.97 211.7C146.989 208.191 160.687 203.508 173.92 197.7C178.8 195.59 181.82 193.04 183.62 190.44L234.26 178.21C238.78 177.21 242.05 178.59 243 181.88C243.77 184.51 242.75 187.81 238.76 189.26V189.22Z" fill="#005C74"/>
<path d="M32.37 85.74H98C98.9617 85.7367 99.9012 85.4506 100.701 84.9171C101.502 84.3836 102.127 83.6265 102.5 82.74L113 58L138.55 118.08C138.925 118.963 139.552 119.716 140.352 120.245C141.153 120.774 142.091 121.056 143.05 121.056C144.009 121.056 144.947 120.774 145.748 120.245C146.548 119.716 147.175 118.963 147.55 118.08L161.3 85.73H223.66C224.917 85.6731 226.104 85.1336 226.974 84.2237C227.844 83.3138 228.329 82.1037 228.329 80.845C228.329 79.5864 227.844 78.3762 226.974 77.4663C226.104 76.5564 224.917 76.0169 223.66 75.96H158C157.039 75.9613 156.1 76.2469 155.301 76.7807C154.502 77.3145 153.879 78.0728 153.51 78.96L143 103.7L117.47 43.62C117.095 42.7372 116.468 41.9843 115.668 41.4551C114.867 40.9259 113.929 40.6437 112.97 40.6437C112.011 40.6437 111.073 40.9259 110.272 41.4551C109.472 41.9843 108.845 42.7372 108.47 43.62L94.72 76H32.37C31.1127 76.0569 29.9257 76.5964 29.056 77.5063C28.1864 78.4162 27.7011 79.6264 27.7011 80.885C27.7011 82.1437 28.1864 83.3538 29.056 84.2637C29.9257 85.1736 31.1127 85.7131 32.37 85.77V85.74Z" fill="#005C74"/>
</svg>
