<svg width="256" height="256" viewBox="0 0 256 256" fill="none" xmlns="http://www.w3.org/2000/svg">
<path d="M142.84 157.63L159.47 177.24C182.94 204.94 163.47 248.12 126.63 248.12H50.93C14.11 248.12 -5.38 204.93 18.09 177.24L31 162.06C35.4739 163.982 40.3127 164.907 45.18 164.77C63.81 164.77 63.81 154.96 82.45 154.96C101.09 154.96 101.07 164.77 119.7 164.77C131.91 164.77 136.11 160.53 142.84 157.63Z" fill="#01CAB8" fill-opacity="0.4"/>
<path d="M189.28 145.14C186.376 145.134 183.539 144.267 181.127 142.65C178.715 141.032 176.837 138.736 175.73 136.051C174.622 133.366 174.336 130.413 174.906 127.566C175.476 124.718 176.878 122.103 178.933 120.052C180.989 118.001 183.606 116.604 186.455 116.04C189.304 115.476 192.256 115.768 194.939 116.881C197.621 117.994 199.914 119.877 201.526 122.292C203.139 124.707 204 127.546 204 130.45C203.999 132.381 203.617 134.293 202.876 136.077C202.136 137.861 201.051 139.481 199.684 140.845C198.317 142.209 196.694 143.291 194.909 144.028C193.124 144.765 191.211 145.143 189.28 145.14V145.14Z" fill="#01CAB8" fill-opacity="0.4"/>
<path d="M118.6 121.5C117.68 120.583 116.952 119.491 116.459 118.289C115.966 117.087 115.718 115.799 115.73 114.5V71.6H120.65C121.907 71.543 123.094 71.0035 123.964 70.0936C124.834 69.1838 125.319 67.9736 125.319 66.715C125.319 65.4563 124.834 64.2462 123.964 63.3363C123.094 62.4264 121.907 61.8869 120.65 61.83H56.91C55.6527 61.8869 54.4657 62.4264 53.596 63.3363C52.7264 64.2462 52.2411 65.4563 52.2411 66.715C52.2411 67.9736 52.7264 69.1838 53.596 70.0936C54.4657 71.0035 55.6527 71.543 56.91 71.6H61.83V114.6C61.8416 115.899 61.5937 117.187 61.1008 118.389C60.608 119.591 59.8802 120.683 58.96 121.6C58.74 121.82 45.09 137.94 14.37 174.18C-11.74 204.9 9.92 253 50.93 253H126.63C167.63 253 189.3 204.89 163.19 174.08C132 137.22 118.82 121.72 118.6 121.5ZM126.6 243.23H50.93C18.28 243.23 1.03 204.93 21.82 180.39L66 128.25C69.5964 124.599 71.6054 119.675 71.59 114.55V71.6H83.89V204C83.9469 205.257 84.4864 206.444 85.3963 207.314C86.3062 208.184 87.5164 208.669 88.775 208.669C90.0336 208.669 91.2438 208.184 92.1537 207.314C93.0636 206.444 93.6031 205.257 93.66 204V71.6H106V114.6C105.985 119.723 107.99 124.645 111.58 128.3L155.78 180.44C176.58 204.99 159.31 243.28 126.67 243.28L126.6 243.23Z" fill="#005C74"/>
<path d="M42.21 189.3C39.3046 189.298 36.4638 190.158 34.047 191.77C31.6301 193.383 29.7457 195.676 28.632 198.359C27.5184 201.043 27.2254 203.996 27.7903 206.846C28.3552 209.696 29.7525 212.315 31.8055 214.37C33.8586 216.426 36.4751 217.827 39.3243 218.396C42.1735 218.965 45.1274 218.676 47.8124 217.566C50.4974 216.456 52.7929 214.574 54.4087 212.16C56.0245 209.745 56.888 206.905 56.89 204C56.8874 200.106 55.3405 196.371 52.5886 193.616C49.8367 190.86 46.1044 189.308 42.21 189.3V189.3ZM42.21 208.91C41.2365 208.91 40.2849 208.621 39.4756 208.08C38.6663 207.539 38.0357 206.77 37.6636 205.871C37.2915 204.971 37.1946 203.981 37.3853 203.027C37.5759 202.072 38.0455 201.195 38.7346 200.508C39.4237 199.82 40.3013 199.352 41.2563 199.163C42.2113 198.975 43.2009 199.074 44.0997 199.447C44.9986 199.821 45.7663 200.454 46.3057 201.264C46.8451 202.074 47.132 203.027 47.13 204C47.1247 205.302 46.6044 206.55 45.6825 207.47C44.7607 208.39 43.5123 208.907 42.21 208.91V208.91Z" fill="#005C74"/>
<path d="M130.45 199.11C127.545 199.11 124.704 199.972 122.289 201.586C119.873 203.2 117.99 205.494 116.878 208.178C115.766 210.863 115.475 213.816 116.042 216.666C116.609 219.515 118.008 222.133 120.063 224.187C122.117 226.242 124.735 227.641 127.584 228.208C130.434 228.775 133.387 228.484 136.072 227.372C138.756 226.26 141.05 224.377 142.664 221.961C144.278 219.546 145.14 216.705 145.14 213.8C145.135 209.906 143.585 206.172 140.832 203.418C138.078 200.665 134.344 199.115 130.45 199.11V199.11ZM130.45 218.72C129.474 218.722 128.52 218.434 127.707 217.893C126.895 217.352 126.262 216.582 125.887 215.681C125.513 214.78 125.414 213.788 125.604 212.831C125.794 211.873 126.264 210.994 126.954 210.304C127.644 209.614 128.523 209.144 129.481 208.954C130.438 208.764 131.43 208.863 132.331 209.237C133.232 209.612 134.002 210.245 134.543 211.057C135.084 211.87 135.372 212.824 135.37 213.8C135.367 215.104 134.848 216.354 133.926 217.276C133.004 218.198 131.754 218.717 130.45 218.72V218.72Z" fill="#005C74"/>
<path d="M223.58 85.52V61.79H228.51C229.804 61.79 231.046 61.2759 231.961 60.3607C232.876 59.4455 233.39 58.2043 233.39 56.91C233.39 55.6158 232.876 54.3745 231.961 53.4594C231.046 52.5442 229.804 52.03 228.51 52.03H179.51C178.216 52.03 176.975 52.5442 176.059 53.4594C175.144 54.3745 174.63 55.6158 174.63 56.91C174.63 58.2043 175.144 59.4455 176.059 60.3607C176.975 61.2759 178.216 61.79 179.51 61.79H184.43V85.52C174.111 90.021 165.656 97.9382 160.488 107.94C155.32 117.942 153.754 129.418 156.052 140.439C158.351 151.46 164.375 161.354 173.111 168.455C181.847 175.557 192.762 179.434 204.02 179.434C215.278 179.434 226.193 175.557 234.929 168.455C243.665 161.354 249.689 151.46 251.988 140.439C254.286 129.418 252.72 117.942 247.552 107.94C242.384 97.9382 233.929 90.021 223.61 85.52H223.58ZM204 169.69C194.744 169.686 185.787 166.41 178.712 160.443C171.637 154.475 166.898 146.199 165.333 137.076C163.768 127.953 165.478 118.571 170.16 110.586C174.842 102.602 182.195 96.5289 190.92 93.44C191.873 93.1048 192.698 92.4823 193.282 91.6585C193.865 90.8346 194.179 89.8498 194.18 88.84V61.79H213.83V88.84C213.828 89.849 214.14 90.8335 214.723 91.6575C215.305 92.4815 216.129 93.1044 217.08 93.44C225.805 96.5289 233.158 102.602 237.84 110.586C242.522 118.571 244.232 127.953 242.667 137.076C241.102 146.199 236.363 154.475 229.288 160.443C222.213 166.41 213.256 169.686 204 169.69V169.69Z" fill="#005C74"/>
<path d="M203.99 159.85C206.685 159.85 208.87 157.665 208.87 154.97C208.87 152.275 206.685 150.09 203.99 150.09C201.295 150.09 199.11 152.275 199.11 154.97C199.11 157.665 201.295 159.85 203.99 159.85Z" fill="#005C74"/>
<path d="M223.57 145.14C226.265 145.14 228.45 142.955 228.45 140.26C228.45 137.565 226.265 135.38 223.57 135.38C220.875 135.38 218.69 137.565 218.69 140.26C218.69 142.955 220.875 145.14 223.57 145.14Z" fill="#005C74"/>
<path d="M223.57 120.64C226.265 120.64 228.45 118.455 228.45 115.76C228.45 113.065 226.265 110.88 223.57 110.88C220.875 110.88 218.69 113.065 218.69 115.76C218.69 118.455 220.875 120.64 223.57 120.64Z" fill="#005C74"/>
<path d="M204 101.06C203.035 101.062 202.093 101.35 201.292 101.887C200.49 102.425 199.866 103.188 199.499 104.079C199.131 104.971 199.036 105.952 199.225 106.898C199.414 107.844 199.88 108.713 200.563 109.394C201.246 110.076 202.115 110.54 203.062 110.727C204.008 110.914 204.989 110.817 205.88 110.448C206.771 110.078 207.532 109.452 208.068 108.65C208.604 107.848 208.89 106.905 208.89 105.94C208.887 104.645 208.371 103.404 207.454 102.489C206.537 101.574 205.295 101.06 204 101.06V101.06Z" fill="#005C74"/>
<path d="M85.33 50.56C86.2464 51.4723 87.4869 51.9845 88.78 51.9845C90.0731 51.9845 91.3136 51.4723 92.23 50.56L102 40.75C102.453 40.2963 102.812 39.7578 103.057 39.1652C103.302 38.5727 103.428 37.9377 103.428 37.2965C103.427 36.6553 103.3 36.0205 103.055 35.4283C102.809 34.836 102.449 34.2981 101.995 33.845C101.541 33.3919 101.003 33.0327 100.41 32.7877C99.8177 32.5428 99.1827 32.417 98.5415 32.4174C97.9003 32.4179 97.2655 32.5446 96.6733 32.7904C96.0811 33.0362 95.5431 33.3963 95.09 33.85L93.62 35.32V22.59C93.6227 19.9847 94.6595 17.4869 96.5027 15.6456C98.3459 13.8043 100.845 12.77 103.45 12.77H189.24C191.845 12.77 194.344 13.8043 196.187 15.6456C198.031 17.4869 199.067 19.9847 199.07 22.59V25.51L197.64 24C197.18 23.5463 196.636 23.1875 196.038 22.9443C195.439 22.701 194.799 22.5779 194.153 22.5821C192.849 22.5905 191.601 23.1167 190.685 24.045C189.769 24.9733 189.259 26.2275 189.267 27.5318C189.276 28.8361 189.802 30.0837 190.73 31L200.59 40.85C201.502 41.752 202.732 42.2579 204.015 42.2579C205.298 42.2579 206.528 41.752 207.44 40.85L217.25 31.05C217.704 30.5969 218.064 30.0589 218.31 29.4667C218.555 28.8745 218.682 28.2397 218.683 27.5985C218.683 26.9573 218.557 26.3223 218.312 25.7298C218.067 25.1372 217.708 24.5987 217.255 24.145C216.802 23.6913 216.264 23.3312 215.672 23.0854C215.08 22.8396 214.445 22.7129 213.804 22.7124C213.162 22.712 212.527 22.8378 211.935 23.0827C211.342 23.3277 210.804 23.6869 210.35 24.14L208.88 25.61V22.59C208.872 17.3951 206.804 12.4154 203.13 8.74302C199.456 5.07061 194.475 3.00529 189.28 3H103.49C98.296 3.00529 93.3163 5.07094 89.6436 8.74363C85.9709 12.4163 83.9053 17.396 83.9 22.59V35.32L82.43 33.85C81.9769 33.3963 81.439 33.0362 80.8467 32.7904C80.2545 32.5446 79.6197 32.4179 78.9785 32.4174C78.3374 32.417 77.7023 32.5428 77.1098 32.7877C76.5172 33.0327 75.9787 33.3919 75.525 33.845C75.0713 34.2981 74.7112 34.836 74.4654 35.4283C74.2196 36.0205 74.0929 36.6553 74.0924 37.2965C74.092 37.9377 74.2178 38.5727 74.4627 39.1652C74.7077 39.7578 75.0669 40.2963 75.52 40.75L85.33 50.56Z" fill="#005C74"/>
<path d="M94.6456 231.939C96.5514 230.034 96.5514 226.944 94.6457 225.038C92.7399 223.132 89.65 223.132 87.7443 225.038C85.8385 226.944 85.8385 230.034 87.7443 231.939C89.65 233.845 92.7399 233.845 94.6456 231.939Z" fill="#005C74"/>
<path d="M61.85 233.38C64.5451 233.38 66.73 231.195 66.73 228.5C66.73 225.805 64.5451 223.62 61.85 223.62C59.1548 223.62 56.97 225.805 56.97 228.5C56.97 231.195 59.1548 233.38 61.85 233.38Z" fill="#005C74"/>
<path d="M115.7 189.27C118.395 189.27 120.58 187.085 120.58 184.39C120.58 181.695 118.395 179.51 115.7 179.51C113.005 179.51 110.82 181.695 110.82 184.39C110.82 187.085 113.005 189.27 115.7 189.27Z" fill="#005C74"/>
<path d="M66.72 189.26C69.4152 189.26 71.6 187.075 71.6 184.38C71.6 181.685 69.4152 179.5 66.72 179.5C64.0249 179.5 61.84 181.685 61.84 184.38C61.84 187.075 64.0249 189.26 66.72 189.26Z" fill="#005C74"/>
</svg>
