<svg width="256" height="256" viewBox="0 0 256 256" fill="none" xmlns="http://www.w3.org/2000/svg">
<path fill-rule="evenodd" clip-rule="evenodd" d="M7.89001 125.78H116.26V213.67H7.89001V125.78Z" fill="#01CAB8" fill-opacity="0.4"/>
<path d="M239 100.73H174.1V86.4C174.109 85.3167 173.757 84.2613 173.1 83.4L153.73 58.07H160.93C162.225 58.07 163.467 57.5562 164.384 56.6413C165.301 55.7264 165.817 54.4852 165.82 53.19V7.89C165.82 6.59309 165.305 5.3493 164.388 4.43225C163.471 3.51519 162.227 3 160.93 3H16.16C15.5183 3 14.8829 3.12655 14.2902 3.37242C13.6975 3.61829 13.1591 3.97864 12.7058 4.43285C12.2525 4.88706 11.8933 5.42621 11.6486 6.01943C11.404 6.61266 11.2787 7.24831 11.28 7.89V53.19C11.28 54.4843 11.7942 55.7255 12.7093 56.6407C13.6245 57.5559 14.8658 58.07 16.16 58.07H23.37L4.00001 83.44C3.34225 84.3009 2.99036 85.3566 3.00001 86.44V232.52C3.00795 237.949 5.1682 243.154 9.00723 246.993C12.8463 250.832 18.0508 252.992 23.48 253H239C242.713 253 246.274 251.525 248.9 248.899C251.525 246.274 253 242.713 253 239V114.72C253 111.007 251.525 107.446 248.9 104.821C246.274 102.195 242.713 100.72 239 100.72V100.73ZM21.06 12.73H40.23V23C40.2001 23.6601 40.3044 24.3194 40.5364 24.9381C40.7684 25.5568 41.1234 26.1221 41.58 26.5998C42.0365 27.0774 42.5851 27.4576 43.1927 27.7174C43.8003 27.9772 44.4542 28.1111 45.115 28.1111C45.7758 28.1111 46.4297 27.9772 47.0373 27.7174C47.6449 27.4576 48.1935 27.0774 48.6501 26.5998C49.1066 26.1221 49.4616 25.5568 49.6936 24.9381C49.9257 24.3194 50.0299 23.6601 50 23V12.77H69.18V23C69.18 24.3022 69.6973 25.5511 70.6181 26.4719C71.5389 27.3927 72.7878 27.91 74.09 27.91C75.3922 27.91 76.6411 27.3927 77.5619 26.4719C78.4827 25.5511 79 24.3022 79 23V12.77H98.14V23C98.1101 23.6601 98.2144 24.3194 98.4464 24.9381C98.6784 25.5568 99.0334 26.1221 99.49 26.5998C99.9465 27.0774 100.495 27.4576 101.103 27.7174C101.71 27.9772 102.364 28.1111 103.025 28.1111C103.686 28.1111 104.34 27.9772 104.947 27.7174C105.555 27.4576 106.104 27.0774 106.56 26.5998C107.017 26.1221 107.372 25.5568 107.604 24.9381C107.836 24.3194 107.94 23.6601 107.91 23V12.77H127.09V23C127.06 23.6601 127.164 24.3194 127.396 24.9381C127.628 25.5568 127.983 26.1221 128.44 26.5998C128.897 27.0774 129.445 27.4576 130.053 27.7174C130.66 27.9772 131.314 28.1111 131.975 28.1111C132.636 28.1111 133.29 27.9772 133.897 27.7174C134.505 27.4576 135.054 27.0774 135.51 26.5998C135.967 26.1221 136.322 25.5568 136.554 24.9381C136.786 24.3194 136.89 23.6601 136.86 23V12.77H156.05V48.3H21.05L21.06 12.73ZM112.06 243.19H23.48C20.6412 243.185 17.9201 242.055 15.9127 240.047C13.9054 238.04 12.7753 235.319 12.77 232.48V88.05L35.66 58.05H141.44L164.32 88.05V100.73H125.32C121.607 100.73 118.046 102.205 115.421 104.831C112.795 107.456 111.32 111.017 111.32 114.73V239C111.318 240.439 111.541 241.87 111.98 243.24L112.06 243.19ZM243.23 239C243.217 240.12 242.766 241.191 241.974 241.984C241.181 242.776 240.111 243.227 238.99 243.24H125.36C124.239 243.235 123.166 242.786 122.375 241.991C121.584 241.197 121.14 240.121 121.14 239V114.72C121.143 113.602 121.588 112.53 122.379 111.739C123.17 110.948 124.242 110.503 125.36 110.5H239C239.556 110.499 240.106 110.607 240.62 110.818C241.133 111.03 241.6 111.34 241.994 111.732C242.388 112.124 242.7 112.589 242.914 113.102C243.128 113.615 243.239 114.165 243.24 114.72L243.23 239Z" fill="#005C74"/>
<path d="M215.15 196.48C211.685 196.48 208.298 197.508 205.416 199.433C202.535 201.358 200.29 204.094 198.964 207.295C197.638 210.497 197.291 214.019 197.967 217.418C198.643 220.817 200.311 223.938 202.762 226.388C205.212 228.839 208.333 230.507 211.732 231.183C215.131 231.859 218.653 231.512 221.855 230.186C225.056 228.86 227.792 226.615 229.717 223.734C231.642 220.852 232.67 217.465 232.67 214C232.665 209.355 230.817 204.902 227.533 201.617C224.248 198.333 219.795 196.485 215.15 196.48V196.48ZM215.15 221.73C213.619 221.728 212.123 221.272 210.852 220.42C209.58 219.568 208.589 218.358 208.005 216.943C207.421 215.528 207.27 213.971 207.571 212.47C207.871 210.969 208.61 209.591 209.694 208.51C210.778 207.429 212.158 206.693 213.66 206.397C215.162 206.1 216.718 206.255 218.131 206.843C219.545 207.431 220.752 208.424 221.601 209.698C222.45 210.972 222.902 212.469 222.9 214C222.895 216.052 222.076 218.018 220.623 219.467C219.17 220.916 217.202 221.73 215.15 221.73V221.73Z" fill="#005C74"/>
<path d="M215.15 122.21C211.685 122.21 208.298 123.237 205.416 125.163C202.535 127.088 200.29 129.824 198.964 133.025C197.638 136.227 197.291 139.749 197.967 143.148C198.643 146.546 200.311 149.668 202.762 152.118C205.212 154.569 208.333 156.237 211.732 156.913C215.131 157.589 218.653 157.242 221.855 155.916C225.056 154.59 227.792 152.345 229.717 149.464C231.642 146.582 232.67 143.195 232.67 139.73C232.665 135.085 230.817 130.632 227.533 127.347C224.248 124.063 219.795 122.215 215.15 122.21V122.21ZM215.15 147.48C213.617 147.48 212.119 147.025 210.844 146.174C209.57 145.322 208.577 144.112 207.99 142.696C207.403 141.28 207.25 139.721 207.549 138.218C207.848 136.715 208.586 135.334 209.67 134.25C210.754 133.166 212.135 132.428 213.638 132.129C215.141 131.83 216.7 131.983 218.116 132.57C219.532 133.156 220.742 134.15 221.594 135.424C222.445 136.699 222.9 138.197 222.9 139.73C222.897 141.785 222.08 143.754 220.627 145.207C219.174 146.66 217.205 147.477 215.15 147.48V147.48Z" fill="#005C74"/>
<path d="M182.18 124.35C180.883 124.35 179.639 124.865 178.722 125.782C177.805 126.699 177.29 127.943 177.29 129.24V219C177.26 219.66 177.364 220.319 177.596 220.938C177.828 221.557 178.183 222.122 178.64 222.6C179.096 223.077 179.645 223.458 180.253 223.717C180.86 223.977 181.514 224.111 182.175 224.111C182.836 224.111 183.49 223.977 184.097 223.717C184.705 223.458 185.253 223.077 185.71 222.6C186.167 222.122 186.522 221.557 186.754 220.938C186.986 220.319 187.09 219.66 187.06 219V129.24C187.061 128.598 186.936 127.963 186.691 127.369C186.447 126.776 186.087 126.237 185.634 125.783C185.181 125.329 184.643 124.968 184.05 124.722C183.457 124.477 182.822 124.35 182.18 124.35V124.35Z" fill="#005C74"/>
<path d="M149.22 196.48C145.755 196.482 142.369 197.511 139.489 199.438C136.609 201.364 134.365 204.101 133.041 207.302C131.716 210.504 131.371 214.026 132.048 217.424C132.725 220.822 134.394 223.943 136.845 226.392C139.296 228.841 142.417 230.509 145.816 231.184C149.214 231.859 152.736 231.512 155.937 230.185C159.138 228.859 161.873 226.613 163.798 223.733C165.723 220.852 166.75 217.465 166.75 214C166.745 209.353 164.896 204.899 161.609 201.614C158.322 198.329 153.867 196.483 149.22 196.48V196.48ZM149.22 221.73C147.69 221.722 146.198 221.261 144.93 220.405C143.662 219.55 142.676 218.338 142.097 216.922C141.517 215.506 141.37 213.951 141.674 212.452C141.978 210.953 142.72 209.578 143.805 208.499C144.89 207.421 146.27 206.689 147.771 206.395C149.272 206.1 150.826 206.257 152.238 206.846C153.65 207.434 154.856 208.428 155.703 209.701C156.551 210.975 157.002 212.47 157 214C156.997 215.019 156.794 216.027 156.401 216.967C156.009 217.907 155.435 218.76 154.712 219.478C153.99 220.196 153.133 220.764 152.19 221.151C151.248 221.537 150.239 221.734 149.22 221.73V221.73Z" fill="#005C74"/>
<path d="M149.22 122.21C145.755 122.212 142.369 123.241 139.489 125.167C136.609 127.094 134.365 129.831 133.041 133.032C131.716 136.234 131.371 139.756 132.048 143.154C132.725 146.552 134.394 149.673 136.845 152.122C139.296 154.571 142.417 156.239 145.816 156.914C149.214 157.589 152.736 157.242 155.937 155.915C159.138 154.589 161.873 152.343 163.798 149.463C165.723 146.582 166.75 143.195 166.75 139.73C166.745 135.083 164.896 130.629 161.609 127.344C158.322 124.059 153.867 122.213 149.22 122.21V122.21ZM149.22 147.48C147.687 147.48 146.189 147.025 144.914 146.174C143.64 145.322 142.647 144.112 142.06 142.696C141.473 141.28 141.32 139.721 141.619 138.218C141.918 136.715 142.656 135.334 143.74 134.25C144.824 133.166 146.205 132.428 147.708 132.129C149.211 131.83 150.77 131.983 152.186 132.57C153.602 133.156 154.812 134.15 155.664 135.424C156.515 136.699 156.97 138.197 156.97 139.73C156.967 141.785 156.15 143.754 154.697 145.207C153.244 146.66 151.275 147.477 149.22 147.48V147.48Z" fill="#005C74"/>
</svg>
