<svg width="256" height="256" viewBox="0 0 256 256" fill="none" xmlns="http://www.w3.org/2000/svg">
<path fill-rule="evenodd" clip-rule="evenodd" d="M181.74 56.61H74.26C72.9673 56.6047 71.7291 56.0889 70.8151 55.1748C69.9011 54.2608 69.3852 53.0226 69.38 51.73H54.72V228.57H201.28V51.73H186.62C186.615 53.0226 186.099 54.2608 185.185 55.1748C184.271 56.0889 183.033 56.6047 181.74 56.61V56.61Z" fill="#01CAB8" fill-opacity="0.4"/>
<path d="M211.05 27.2999H190.2C189.341 25.8165 188.108 24.5848 186.623 23.7283C185.138 22.8718 183.454 22.4206 181.74 22.4199H151.94C146.27 -3.48006 109.72 -3.46006 104.06 22.4199H74.26C72.5459 22.4206 70.8621 22.8718 69.3773 23.7283C67.8924 24.5848 66.6588 25.8165 65.8 27.2999H45C43.0676 27.2947 41.1532 27.6712 39.3668 28.408C37.5804 29.1447 35.9571 30.2272 34.5902 31.5931C33.2234 32.959 32.1398 34.5816 31.4019 36.3675C30.6639 38.1534 30.286 40.0676 30.29 41.9999V238.34C30.2913 240.269 30.6731 242.179 31.4134 243.96C32.1537 245.741 33.2381 247.359 34.6044 248.721C35.9708 250.083 37.5923 251.161 39.3761 251.896C41.1599 252.63 43.071 253.005 45 253H211.1C214.987 252.997 218.715 251.452 221.463 248.703C224.212 245.954 225.757 242.227 225.76 238.34V41.9999C225.764 40.0676 225.386 38.1534 224.648 36.3675C223.91 34.5816 222.827 32.959 221.46 31.5931C220.093 30.2272 218.47 29.1447 216.683 28.408C214.897 27.6712 212.982 27.2947 211.05 27.2999ZM108.46 32.1899C109.102 32.1899 109.737 32.0634 110.33 31.8175C110.923 31.5717 111.461 31.2113 111.914 30.7571C112.368 30.3029 112.727 29.7637 112.971 29.1705C113.216 28.5773 113.341 27.9416 113.34 27.2999C113.34 23.4119 114.885 19.683 117.634 16.9338C120.383 14.1845 124.112 12.6399 128 12.6399C131.888 12.6399 135.617 14.1845 138.366 16.9338C141.115 19.683 142.66 23.4119 142.66 27.2999C142.659 27.9416 142.784 28.5773 143.029 29.1705C143.273 29.7637 143.633 30.3029 144.086 30.7571C144.539 31.2113 145.077 31.5717 145.67 31.8175C146.263 32.0634 146.898 32.1899 147.54 32.1899H181.74V51.7299H74.26V32.1899H108.46ZM215.93 238.34C215.93 239.635 215.416 240.877 214.501 241.794C213.586 242.711 212.345 243.227 211.05 243.23H45C43.7048 243.227 42.4636 242.711 41.5487 241.794C40.6338 240.877 40.12 239.635 40.12 238.34V41.9999C40.1147 41.3553 40.237 40.7159 40.4797 40.1186C40.7225 39.5214 41.081 38.978 41.5345 38.5198C41.9881 38.0617 42.5277 37.6977 43.1225 37.4488C43.7172 37.2 44.3553 37.0712 45 37.0699H64.49V51.7299C64.4927 54.3203 65.5228 56.8038 67.3545 58.6355C69.1862 60.4671 71.6697 61.4973 74.26 61.4999H181.74C184.33 61.4973 186.814 60.4671 188.646 58.6355C190.477 56.8038 191.507 54.3203 191.51 51.7299V37.0699H211.05C211.695 37.0712 212.333 37.2 212.928 37.4488C213.522 37.6977 214.062 38.0617 214.516 38.5198C214.969 38.978 215.328 39.5214 215.57 40.1186C215.813 40.7159 215.935 41.3553 215.93 41.9999V238.34Z" fill="#005C74"/>
<path d="M128 32.19C128.967 32.19 129.913 31.9032 130.717 31.3659C131.521 30.8286 132.148 30.0649 132.518 29.1714C132.888 28.2778 132.985 27.2946 132.796 26.346C132.607 25.3975 132.142 24.5262 131.458 23.8423C130.774 23.1584 129.903 22.6927 128.954 22.504C128.005 22.3153 127.022 22.4122 126.129 22.7823C125.235 23.1524 124.471 23.7791 123.934 24.5833C123.397 25.3875 123.11 26.3329 123.11 27.3C123.11 28.5969 123.625 29.8407 124.542 30.7578C125.459 31.6748 126.703 32.19 128 32.19V32.19Z" fill="#005C74"/>
<path d="M74.26 125H86.48V137.21C86.4787 137.851 86.604 138.486 86.8488 139.079C87.0936 139.672 87.453 140.21 87.9064 140.664C88.3598 141.117 88.8983 141.476 89.491 141.721C90.0836 141.966 90.7188 142.091 91.36 142.09H115.79C117.084 142.09 118.326 141.576 119.241 140.661C120.156 139.745 120.67 138.504 120.67 137.21V125H132.89C134.185 124.997 135.426 124.481 136.341 123.564C137.256 122.647 137.77 121.405 137.77 120.11V95.69C137.767 94.3965 137.252 93.1568 136.338 92.2422C135.423 91.3276 134.183 90.8126 132.89 90.81H120.67V78.6C120.67 77.3048 120.156 76.0625 119.241 75.1457C118.326 74.229 117.085 73.7126 115.79 73.71H91.36C90.7183 73.71 90.0829 73.8365 89.4902 74.0824C88.8975 74.3283 88.3591 74.6886 87.9058 75.1428C87.4525 75.597 87.0933 76.1362 86.8486 76.7294C86.6039 77.3226 86.4787 77.9583 86.48 78.6V90.81H74.26C72.9658 90.81 71.7245 91.3241 70.8093 92.2393C69.8941 93.1545 69.38 94.3957 69.38 95.69V120.12C69.38 121.414 69.8941 122.655 70.8093 123.571C71.7245 124.486 72.9658 125 74.26 125V125ZM79.15 100.57H91.36C92.6569 100.57 93.9007 100.055 94.8178 99.1377C95.7348 98.2207 96.25 96.9769 96.25 95.68V83.48H110.9V95.69C110.9 96.9869 111.415 98.2307 112.332 99.1477C113.249 100.065 114.493 100.58 115.79 100.58H128V115.24H115.79C115.148 115.239 114.513 115.364 113.919 115.609C113.326 115.853 112.787 116.212 112.333 116.666C111.879 117.119 111.518 117.657 111.272 118.25C111.027 118.843 110.9 119.478 110.9 120.12V132.33H96.25V120.12C96.25 119.478 96.1235 118.843 95.8776 118.25C95.6317 117.657 95.2714 117.119 94.8172 116.666C94.3629 116.212 93.8238 115.853 93.2306 115.609C92.6374 115.364 92.0017 115.239 91.36 115.24H79.15V100.57Z" fill="#005C74"/>
<path d="M181.74 201.7H74.26C72.9631 201.7 71.7193 202.215 70.8022 203.132C69.8852 204.049 69.37 205.293 69.37 206.59C69.37 207.887 69.8852 209.131 70.8022 210.048C71.7193 210.965 72.9631 211.48 74.26 211.48H181.74C183.037 211.48 184.281 210.965 185.198 210.048C186.115 209.131 186.63 207.887 186.63 206.59C186.63 205.293 186.115 204.049 185.198 203.132C184.281 202.215 183.037 201.7 181.74 201.7V201.7Z" fill="#005C74"/>
<path d="M181.74 179.56H74.26C73.0026 179.617 71.8157 180.156 70.946 181.066C70.0764 181.976 69.5911 183.186 69.5911 184.445C69.5911 185.704 70.0764 186.914 70.946 187.824C71.8157 188.734 73.0026 189.273 74.26 189.33H181.74C182.997 189.273 184.184 188.734 185.054 187.824C185.924 186.914 186.409 185.704 186.409 184.445C186.409 183.186 185.924 181.976 185.054 181.066C184.184 180.156 182.997 179.617 181.74 179.56V179.56Z" fill="#005C74"/>
<path d="M181.74 157.41H74.26C73.0026 157.467 71.8157 158.006 70.946 158.916C70.0764 159.826 69.5911 161.036 69.5911 162.295C69.5911 163.554 70.0764 164.764 70.946 165.674C71.8157 166.584 73.0026 167.123 74.26 167.18H181.74C182.997 167.123 184.184 166.584 185.054 165.674C185.924 164.764 186.409 163.554 186.409 162.295C186.409 161.036 185.924 159.826 185.054 158.916C184.184 158.006 182.997 157.467 181.74 157.41V157.41Z" fill="#005C74"/>
<path d="M181.74 125.17H156.82C155.563 125.227 154.376 125.766 153.506 126.676C152.636 127.586 152.151 128.796 152.151 130.055C152.151 131.314 152.636 132.524 153.506 133.434C154.376 134.344 155.563 134.883 156.82 134.94H181.74C182.997 134.883 184.184 134.344 185.054 133.434C185.924 132.524 186.409 131.314 186.409 130.055C186.409 128.796 185.924 127.586 185.054 126.676C184.184 125.766 182.997 125.227 181.74 125.17V125.17Z" fill="#005C74"/>
<path d="M181.74 103H156.82C155.563 103.057 154.376 103.596 153.506 104.506C152.636 105.416 152.151 106.626 152.151 107.885C152.151 109.144 152.636 110.354 153.506 111.264C154.376 112.174 155.563 112.713 156.82 112.77H181.74C182.997 112.713 184.184 112.174 185.054 111.264C185.924 110.354 186.409 109.144 186.409 107.885C186.409 106.626 185.924 105.416 185.054 104.506C184.184 103.596 182.997 103.057 181.74 103V103Z" fill="#005C74"/>
<path d="M181.74 80.88H156.82C155.563 80.9369 154.376 81.4764 153.506 82.3863C152.636 83.2962 152.151 84.5064 152.151 85.765C152.151 87.0236 152.636 88.2338 153.506 89.1437C154.376 90.0536 155.563 90.5931 156.82 90.65H181.74C182.997 90.5931 184.184 90.0536 185.054 89.1437C185.924 88.2338 186.409 87.0236 186.409 85.765C186.409 84.5064 185.924 83.2962 185.054 82.3863C184.184 81.4764 182.997 80.9369 181.74 80.88V80.88Z" fill="#005C74"/>
</svg>
